<?xml version="1.0" standalone="no"?>
<!DOCTYPE svg PUBLIC "-//W3C//DTD SVG 20010904//EN"
 "http://www.w3.org/TR/2001/REC-SVG-20010904/DTD/svg10.dtd">
<svg version="1.0" xmlns="http://www.w3.org/2000/svg"
 width="998.000000pt" height="998.000000pt" viewBox="0 0 998.000000 998.000000"
 preserveAspectRatio="xMidYMid meet">
<metadata>
Created by potrace 1.11, written by Peter Selinger 2001-2013
</metadata>
<g transform="translate(0.000000,998.000000) scale(0.100000,-0.100000)"
fill="#000000" stroke="none">
<path d="M5805 9324 c-22 -2 -96 -9 -165 -14 -69 -6 -185 -20 -258 -31 -76
-11 -187 -19 -258 -19 l-124 0 0 -25 c0 -20 -7 -26 -42 -35 -125 -32 -302 -82
-367 -105 -41 -14 -76 -25 -77 -25 -2 0 -11 27 -20 60 -17 60 -17 61 -47 54
-56 -12 -608 -171 -613 -177 -3 -3 8 -54 25 -113 17 -59 30 -108 28 -109 -13
-8 -297 -199 -313 -210 -21 -15 -23 -12 -98 115 -42 71 -79 130 -82 130 -8 0
-547 -321 -562 -335 -10 -9 9 -48 97 -197 61 -102 112 -190 113 -195 2 -5 -42
-67 -96 -137 l-99 -128 -189 189 -188 188 -38 -40 c-21 -22 -127 -130 -235
-241 l-197 -200 251 -250 250 -250 -53 -127 c-29 -69 -56 -127 -59 -127 -4 0
-156 84 -338 186 -182 103 -333 185 -335 183 -7 -7 -316 -558 -322 -572 -4
-11 103 -75 391 -237 218 -123 399 -228 401 -234 2 -6 -7 -67 -19 -136 -21
-111 -26 -125 -43 -122 -10 2 -223 53 -471 113 -249 60 -456 109 -461 109 -8
0 -168 -648 -161 -653 2 -2 237 -59 521 -128 l518 -124 0 -92 0 -93 -32 0
c-247 -4 -1050 -29 -1054 -33 -4 -3 -3 -155 1 -338 l8 -332 286 7 c157 3 401
9 542 13 l256 6 6 -83 c4 -46 5 -86 3 -88 -3 -2 -231 -69 -508 -149 -277 -80
-504 -147 -506 -148 -3 -3 178 -637 183 -643 2 -2 206 56 455 128 249 72 457
129 463 127 6 -2 17 -29 23 -60 l11 -57 -396 -225 c-218 -124 -402 -229 -410
-234 -11 -7 20 -69 150 -300 90 -159 167 -290 170 -291 4 0 160 87 347 193
l339 194 66 -149 65 -149 -245 -250 -246 -250 24 -25 c13 -14 122 -121 241
-236 l218 -210 185 188 185 189 38 -45 c20 -24 70 -82 110 -127 39 -45 72 -86
72 -90 0 -4 -50 -95 -110 -202 -61 -107 -110 -197 -110 -200 0 -3 131 -80 291
-170 232 -131 293 -161 300 -150 5 8 38 66 74 129 95 171 79 160 161 108 38
-25 103 -64 144 -87 41 -22 81 -45 88 -49 11 -7 6 -35 -23 -142 -19 -73 -33
-135 -31 -138 5 -4 624 -171 638 -172 4 0 12 19 18 43 6 23 18 65 26 93 l14
52 62 -20 c54 -16 225 -62 311 -82 26 -6 27 -8 27 -76 l0 -70 335 0 c304 0
335 2 335 16 0 15 10 16 83 10 717 -58 1371 -17 1918 120 334 84 585 184 754
301 l70 48 -1 385 c-1 403 -8 514 -60 960 -24 206 -59 455 -70 493 -5 16 -20
17 -167 15 l-161 -3 -281 -742 c-187 -495 -289 -751 -305 -768 -63 -67 -279
-138 -524 -172 -156 -22 -723 -25 -891 -5 -919 113 -1614 519 -2097 1227 -478
699 -713 1696 -659 2790 38 770 171 1321 452 1883 267 534 618 925 1071 1194
283 167 639 289 1013 345 101 15 184 18 515 18 501 -1 738 -23 901 -84 l56
-21 99 -273 c54 -149 196 -542 315 -872 l216 -600 161 -3 160 -2 6 27 c18 89
87 616 110 843 38 365 70 927 64 1115 l-3 110 -117 52 c-398 177 -856 281
-1478 334 -122 10 -935 21 -1015 13z"/>
</g>
</svg>
